<?xml version="1.0" encoding="UTF-8"?>
<svg id="Layer_2" data-name="Layer 2" xmlns="http://www.w3.org/2000/svg" viewBox="0 0 493.19 277.73">
  <defs>
    <style>
      .cls-1 {
        fill: #0100cb;
      }
    </style>
  </defs>
  <g id="Layer_1-2" data-name="Layer 1">
    <path class="cls-1" d="M116.54,277.73h107.79c16.42,0,30.47-11.8,33.3-27.98l6.67-38.16c1.29-7.35,7.67-12.72,15.14-12.72h74.2c12.2,0,21.45,11,19.34,23.02l-9.76,55.84h48.82c18.61,0,34.53-13.36,37.77-31.69L493.19,0h-55.35c-14.83,0-27.53,10.65-30.1,25.26l-13.95,79.12c-1.65,9.39-9.81,16.23-19.34,16.23h-73.04c-12.94,0-24.01,9.29-26.26,22.03l-7.3,41.4c-1.29,7.34-7.68,12.7-15.13,12.7h-121.91c-31.91,0-53.29-25.96-47.66-57.87,5.63-31.91,36.16-57.87,68.07-57.87h110.57c14.82,0,27.51-10.64,30.08-25.24L301.71,0h-136.2C88.94,0,15.66,62.29,2.16,138.87c-13.5,76.57,37.81,138.87,114.38,138.87Z"/>
  </g>
</svg>