<?xml version="1.0" encoding="UTF-8"?>
<svg id="Layer_2" data-name="Layer 2" xmlns="http://www.w3.org/2000/svg" viewBox="0 0 536.23 283.58">
  <defs>
    <style>
      .cls-1 {
        fill: #0100cb;
      }
    </style>
  </defs>
  <g id="Layer_1-2" data-name="Layer 1">
    <g>
      <path class="cls-1" d="M32.33,257.92c-2.1.98-4.29,1.48-6.59,1.48-2.02,0-3.81-.33-5.38-.98-1.57-.66-2.85-1.61-3.82-2.85-.98-1.24-1.65-2.73-2.03-4.47-.37-1.73-.38-3.66,0-5.76.37-2.11,1.05-4.03,2.04-5.77.99-1.73,2.19-3.22,3.6-4.46,1.41-1.24,3.02-2.19,4.83-2.85,1.8-.66,3.71-.99,5.73-.99,2.3,0,4.32.49,6.07,1.48,1.75.99,3.25,2.41,4.52,4.29l10.27-8.02c-1.85-3.05-4.43-5.35-7.74-6.93-3.31-1.57-7.24-2.35-11.78-2.35-3.89,0-7.59.62-11.09,1.86-3.5,1.24-6.67,3-9.51,5.27-2.84,2.27-5.22,4.98-7.13,8.12-1.91,3.14-3.2,6.59-3.86,10.34-.66,3.75-.59,7.19.22,10.33.8,3.14,2.23,5.85,4.26,8.12,2.04,2.27,4.59,4.03,7.65,5.27,3.06,1.24,6.54,1.86,10.43,1.86,4.55,0,8.75-.8,12.62-2.39,3.87-1.59,7.26-3.91,10.19-6.96l-7.45-8.02c-1.93,1.92-3.95,3.38-6.04,4.36Z"/>
      <path class="cls-1" d="M85.37,233.66c-2.96-1.69-6.53-2.53-10.7-2.53s-8.02.84-11.56,2.53c-3.53,1.69-6.49,4.02-8.86,7-2.38,2.98-3.9,6.39-4.58,10.23-.67,3.8-.34,7.18.99,10.16,1.33,2.98,3.46,5.31,6.4,7,2.94,1.69,6.49,2.53,10.66,2.53s8.03-.84,11.59-2.53c3.56-1.69,6.52-4.02,8.9-7,2.38-2.98,3.9-6.36,4.57-10.16.68-3.84.35-7.25-.97-10.23-1.33-2.98-3.47-5.31-6.43-7ZM79.21,250.82c-.34,1.92-.99,3.57-1.96,4.96-.97,1.38-2.12,2.43-3.43,3.13-1.32.7-2.73,1.05-4.23,1.05s-2.79-.35-3.86-1.05c-1.07-.7-1.85-1.74-2.33-3.13-.48-1.38-.56-3.03-.22-4.96.35-1.97,1-3.61,1.96-4.92.96-1.31,2.1-2.32,3.42-3.02,1.32-.7,2.73-1.05,4.23-1.05s2.79.35,3.86,1.05c1.07.7,1.85,1.71,2.35,3.02.49,1.31.57,2.95.22,4.92Z"/>
      <path class="cls-1" d="M159.6,232.96c-2.1-1.22-4.63-1.83-7.59-1.83-3.56,0-6.87.89-9.93,2.67-1.61.94-3.06,2.07-4.35,3.36-.62-1.38-1.51-2.52-2.64-3.4-2.27-1.76-5.14-2.64-8.61-2.64-3,0-5.84.7-8.53,2.11-1.3.68-2.5,1.53-3.61,2.52l.7-4h-12.8l-6.73,38.18h13.36l3.32-18.84c.36-2.01.94-3.64,1.74-4.89.81-1.24,1.78-2.17,2.92-2.78,1.14-.61,2.34-.91,3.61-.91,1.83,0,3.14.62,3.93,1.86.79,1.24.94,3.22.46,5.94l-3.46,19.62h13.36l3.32-18.84c.36-2.01.92-3.64,1.71-4.89.78-1.24,1.73-2.17,2.85-2.78,1.11-.61,2.33-.91,3.64-.91,1.78,0,3.08.62,3.89,1.86.81,1.24.98,3.22.5,5.94l-3.46,19.62h13.36l3.84-21.8c.69-3.94.59-7.15-.3-9.63-.9-2.48-2.4-4.34-4.51-5.56Z"/>
      <path class="cls-1" d="M208.84,233.59c-2.55-1.64-5.55-2.46-9.02-2.46s-6.4.71-8.92,2.14c-1.11.63-2.11,1.42-3.05,2.32l.68-3.83h-12.8l-9.14,51.82h13.36l3.01-17.1c.57.74,1.21,1.41,1.98,1.95,2.04,1.43,4.69,2.14,7.92,2.14,3.47,0,6.76-.8,9.88-2.39,3.12-1.59,5.77-3.87,7.95-6.82,2.18-2.95,3.63-6.42,4.33-10.41.72-4.08.5-7.58-.64-10.51-1.15-2.93-2.99-5.22-5.54-6.86ZM201.53,250.96c-.33,1.87-.98,3.49-1.94,4.85-.97,1.36-2.11,2.39-3.43,3.09-1.32.7-2.73,1.05-4.23,1.05s-2.79-.35-3.86-1.05c-1.07-.7-1.85-1.73-2.34-3.09-.49-1.36-.56-2.98-.23-4.85.36-2.01,1.01-3.69,1.98-5.03.96-1.34,2.1-2.36,3.42-3.06,1.32-.7,2.73-1.05,4.23-1.05s2.79.35,3.86,1.05c1.07.7,1.85,1.72,2.34,3.06.49,1.34.56,3.01.2,5.03Z"/>
      <polygon class="cls-1" points="217.87 269.94 231.23 269.94 240.43 217.77 227.07 217.77 217.87 269.94"/>
      <polygon class="cls-1" points="322.42 239.22 303.51 239.22 306.77 220.73 292.85 220.73 284.17 269.94 298.09 269.94 301.48 250.75 320.39 250.75 317 269.94 330.93 269.94 339.6 220.73 325.68 220.73 322.42 239.22"/>
      <path class="cls-1" d="M375.36,233.49c-2.79-1.57-6.07-2.36-9.81-2.36-4.03,0-7.78.84-11.24,2.53-3.46,1.69-6.36,4.02-8.69,7-2.33,2.98-3.83,6.39-4.51,10.23-.66,3.75-.33,7.11,1,10.09,1.33,2.98,3.51,5.32,6.56,7.03,3.05,1.71,6.85,2.57,11.4,2.57,3.61,0,6.84-.53,9.7-1.58,2.86-1.05,5.35-2.57,7.48-4.54l-5.66-7.38c-1.51,1.13-2.97,1.96-4.38,2.5-1.41.54-3.07.81-4.99.81-2.02,0-3.69-.36-5.01-1.09-1.32-.73-2.25-1.77-2.79-3.13-.23-.58-.36-1.22-.43-1.9h27.66c.14-.51.28-1.08.44-1.69.15-.61.27-1.15.35-1.62.74-4.22.45-7.79-.89-10.72-1.34-2.93-3.4-5.18-6.19-6.75ZM359.52,241.75c1.34-.7,2.83-1.05,4.47-1.05s2.91.35,3.96,1.05c1.05.7,1.8,1.7,2.25,2.99.27.76.38,1.6.37,2.5h-15.57c.31-.9.71-1.74,1.21-2.5.86-1.29,1.96-2.29,3.3-2.99Z"/>
      <path class="cls-1" d="M418.33,235.21c-.57-.73-1.19-1.4-1.94-1.93-2.02-1.43-4.67-2.14-7.95-2.14s-6.71.81-9.85,2.43c-3.15,1.62-5.81,3.89-7.99,6.82-2.18,2.93-3.63,6.43-4.35,10.51-.71,4.03-.49,7.51.66,10.44,1.15,2.93,3.01,5.2,5.58,6.82,2.57,1.62,5.57,2.43,8.99,2.43s6.45-.7,8.95-2.11c1.09-.61,2.08-1.4,3.01-2.29l-.66,3.77h12.8l6.73-38.18h-13.36l-.61,3.45ZM410.39,258.9c-1.32.7-2.73,1.05-4.23,1.05s-2.79-.35-3.86-1.05c-1.07-.7-1.85-1.74-2.33-3.13-.48-1.38-.56-3.01-.23-4.89.36-2.01,1.01-3.68,1.97-4.99.96-1.31,2.1-2.32,3.42-3.02,1.32-.7,2.73-1.05,4.23-1.05s2.79.35,3.86,1.05c1.07.7,1.85,1.71,2.35,3.02.49,1.31.56,2.98.21,4.99-.33,1.88-.98,3.5-1.95,4.89-.97,1.38-2.12,2.43-3.43,3.13Z"/>
      <polygon class="cls-1" points="434.14 269.94 447.5 269.94 456.7 217.77 443.34 217.77 434.14 269.94"/>
      <path class="cls-1" d="M483.08,223.26h-13.36l-1.76,9.98h-5.55l-1.76,9.99h5.55l-2.26,12.8c-.86,4.88-.14,8.52,2.15,10.93,2.29,2.41,5.88,3.62,10.75,3.62,1.78,0,3.51-.17,5.19-.53,1.68-.35,3.2-.93,4.56-1.72l-1.74-9.28c-1.31.8-2.74,1.19-4.29,1.19-1.22,0-2.13-.37-2.72-1.12-.59-.75-.76-1.85-.51-3.3l2.22-12.59h8.72l1.76-9.99h-8.72l1.76-9.98Z"/>
      <path class="cls-1" d="M535.41,238.52c-.95-2.48-2.51-4.34-4.68-5.56-2.18-1.22-4.74-1.83-7.69-1.83-3.19,0-6.17.71-8.96,2.14-1.17.6-2.25,1.34-3.27,2.17l3.12-17.67h-13.36l-9.2,52.17h13.36l3.24-18.35c.38-2.16,1.01-3.89,1.9-5.2.89-1.31,1.97-2.29,3.26-2.92,1.28-.63,2.65-.95,4.11-.95,1.87,0,3.25.62,4.14,1.86.88,1.24,1.08,3.22.6,5.94l-3.46,19.62h13.43l3.84-21.8c.69-3.94.57-7.15-.37-9.63Z"/>
      <polygon class="cls-1" points="274.03 231.77 260.27 254.11 255.25 231.77 241.54 231.77 250.81 269.46 242.46 283.04 256.39 283.04 263.89 270.34 263.97 270.34 286.68 231.77 274.03 231.77"/>
      <path class="cls-1" d="M191.02,163.1h63.3c9.64,0,17.89-6.93,19.55-16.43l3.92-22.41c.75-4.32,4.5-7.47,8.89-7.47h43.58c7.16,0,12.59,6.46,11.36,13.52l-5.73,32.79h28.67c10.93,0,20.28-7.85,22.18-18.61L412.21,0h-32.5c-8.71,0-16.16,6.25-17.68,14.83l-8.19,46.46c-.97,5.51-5.76,9.53-11.36,9.53h-42.89c-7.6,0-14.1,5.46-15.42,12.94l-4.29,24.32c-.76,4.31-4.51,7.46-8.89,7.46h-71.59c-18.74,0-31.29-15.24-27.99-33.98,3.3-18.74,21.24-33.98,39.97-33.98h64.93c8.71,0,16.15-6.25,17.67-14.82l5.77-32.74h-79.98c-44.97,0-88,36.58-95.93,81.55-7.93,44.97,22.2,81.55,67.17,81.55Z"/>
    </g>
  </g>
</svg>