<?xml version="1.0" encoding="UTF-8"?>
<svg id="Layer_2" data-name="Layer 2" xmlns="http://www.w3.org/2000/svg" viewBox="0 0 617.7 76.57">
  <defs>
    <style>
      .cls-1 {
        fill: #fff;
      }
    </style>
  </defs>
  <g id="Layer_1-2" data-name="Layer 1">
    <g>
      <path class="cls-1" d="M102.22,8.38c.13-.15.25-.31.39-.46-.13.15-.26.31-.39.46Z"/>
      <g>
        <path class="cls-1" d="M170.25,51.33c-1.86.87-3.81,1.31-5.85,1.31-1.79,0-3.38-.29-4.78-.87-1.4-.58-2.53-1.43-3.39-2.53-.87-1.1-1.47-2.43-1.8-3.97-.33-1.54-.33-3.25,0-5.12.33-1.87.93-3.58,1.81-5.12.87-1.54,1.94-2.86,3.2-3.96,1.26-1.1,2.68-1.95,4.29-2.53,1.6-.58,3.3-.87,5.09-.87,2.04,0,3.83.44,5.39,1.31,1.55.87,2.89,2.14,4.01,3.81l9.12-7.12c-1.65-2.7-3.94-4.75-6.88-6.15-2.94-1.39-6.43-2.09-10.46-2.09-3.46,0-6.74.55-9.84,1.65-3.11,1.1-5.92,2.66-8.44,4.68-2.52,2.02-4.63,4.42-6.33,7.21-1.7,2.79-2.84,5.85-3.43,9.18-.59,3.33-.52,6.39.19,9.18.71,2.79,1.98,5.19,3.79,7.21,1.81,2.02,4.07,3.58,6.79,4.68,2.72,1.1,5.81,1.65,9.26,1.65,4.04,0,7.77-.71,11.21-2.12,3.43-1.41,6.45-3.48,9.05-6.18l-6.61-7.12c-1.72,1.71-3.51,3-5.37,3.87Z"/>
        <path class="cls-1" d="M217.35,29.79c-2.63-1.5-5.8-2.25-9.5-2.25s-7.12.75-10.26,2.25c-3.14,1.5-5.76,3.57-7.87,6.21-2.11,2.64-3.47,5.67-4.07,9.08-.59,3.37-.3,6.38.88,9.02,1.18,2.64,3.07,4.71,5.68,6.21,2.61,1.5,5.76,2.25,9.47,2.25s7.13-.75,10.29-2.25c3.16-1.5,5.79-3.57,7.9-6.21,2.11-2.64,3.46-5.65,4.06-9.02.6-3.41.31-6.44-.86-9.08-1.18-2.64-3.08-4.71-5.71-6.21ZM211.88,45.03c-.3,1.71-.88,3.17-1.74,4.4-.86,1.23-1.88,2.15-3.05,2.78-1.17.62-2.42.94-3.75.94s-2.47-.31-3.43-.94c-.95-.62-1.64-1.55-2.07-2.78-.43-1.23-.49-2.69-.19-4.4.31-1.75.89-3.2,1.74-4.37.85-1.16,1.86-2.06,3.03-2.68,1.17-.62,2.42-.94,3.76-.94s2.47.31,3.42.94c.95.62,1.65,1.52,2.09,2.68.44,1.17.5,2.62.2,4.37Z"/>
        <path class="cls-1" d="M283.26,29.17c-1.87-1.08-4.12-1.62-6.74-1.62-3.16,0-6.1.79-8.82,2.37-1.43.84-2.72,1.83-3.86,2.98-.55-1.23-1.34-2.23-2.34-3.01-2.01-1.56-4.56-2.34-7.64-2.34-2.66,0-5.19.62-7.57,1.87-1.16.61-2.22,1.35-3.2,2.23l.62-3.54h-11.36l-5.98,33.9h11.86l2.95-16.73c.32-1.79.83-3.24,1.55-4.34.71-1.1,1.58-1.93,2.59-2.47,1.01-.54,2.08-.81,3.2-.81,1.62,0,2.78.55,3.49,1.65.7,1.1.84,2.86.41,5.28l-3.07,17.42h11.86l2.95-16.73c.32-1.79.82-3.24,1.51-4.34.69-1.1,1.54-1.93,2.53-2.47.99-.54,2.07-.81,3.23-.81,1.58,0,2.73.55,3.45,1.65.72,1.1.87,2.86.44,5.28l-3.07,17.42h11.86l3.41-19.36c.62-3.5.53-6.35-.27-8.55-.8-2.21-2.13-3.85-4-4.93Z"/>
        <path class="cls-1" d="M326.99,29.73c-2.26-1.46-4.93-2.19-8.01-2.19s-5.68.63-7.92,1.9c-.98.55-1.87,1.24-2.7,2.03l.6-3.38h-11.36l-8.11,46.01h11.86l2.67-15.13c.51.65,1.09,1.21,1.76,1.68,1.82,1.27,4.16,1.9,7.03,1.9,3.08,0,6-.71,8.77-2.12,2.77-1.41,5.12-3.43,7.06-6.06,1.94-2.62,3.22-5.7,3.85-9.24.64-3.62.45-6.73-.57-9.33-1.02-2.6-2.66-4.63-4.92-6.09ZM320.5,45.15c-.29,1.66-.87,3.1-1.73,4.31-.86,1.21-1.87,2.12-3.04,2.75-1.17.62-2.42.94-3.76.94s-2.47-.31-3.43-.94c-.95-.62-1.64-1.54-2.08-2.75-.43-1.21-.5-2.64-.21-4.31.32-1.79.9-3.28,1.75-4.46.85-1.19,1.87-2.09,3.04-2.72,1.17-.62,2.42-.94,3.76-.94s2.47.31,3.43.94c.95.62,1.64,1.53,2.08,2.72.44,1.19.5,2.67.18,4.46Z"/>
        <polygon class="cls-1" points="335.01 62.01 346.87 62.01 355.04 15.68 343.17 15.68 335.01 62.01"/>
        <polygon class="cls-1" points="427.85 34.72 411.05 34.72 413.95 18.3 401.59 18.3 393.88 62.01 406.24 62.01 409.25 44.96 426.04 44.96 423.04 62.01 435.4 62.01 443.11 18.3 430.74 18.3 427.85 34.72"/>
        <path class="cls-1" d="M474.85,29.64c-2.48-1.39-5.39-2.09-8.71-2.09-3.58,0-6.91.75-9.98,2.25-3.07,1.5-5.65,3.57-7.71,6.21-2.07,2.64-3.4,5.67-4.01,9.08-.59,3.33-.29,6.32.89,8.96,1.18,2.64,3.12,4.72,5.83,6.24,2.71,1.52,6.08,2.28,10.12,2.28,3.21,0,6.08-.47,8.61-1.4,2.54-.94,4.75-2.28,6.64-4.03l-5.03-6.56c-1.34,1-2.64,1.74-3.89,2.22-1.25.48-2.73.72-4.44.72-1.79,0-3.27-.32-4.45-.97-1.18-.64-2-1.57-2.48-2.78-.2-.52-.32-1.09-.38-1.69h24.56c.12-.46.25-.96.39-1.5.14-.54.24-1.02.31-1.44.66-3.75.4-6.92-.79-9.52-1.19-2.6-3.02-4.6-5.5-5.99ZM460.79,36.97c1.19-.62,2.52-.94,3.97-.94s2.59.31,3.52.94c.93.62,1.6,1.51,2,2.65.24.67.33,1.42.33,2.22h-13.83c.28-.8.63-1.55,1.08-2.22.76-1.14,1.74-2.03,2.93-2.65Z"/>
        <path class="cls-1" d="M513.02,31.11c-.5-.64-1.08-1.2-1.74-1.67-1.8-1.27-4.15-1.9-7.06-1.9s-5.96.72-8.75,2.15c-2.79,1.44-5.16,3.46-7.09,6.06-1.94,2.6-3.22,5.71-3.86,9.33-.63,3.58-.44,6.67.58,9.27,1.02,2.6,2.67,4.62,4.96,6.06,2.28,1.44,4.95,2.15,7.99,2.15s5.73-.62,7.95-1.87c.96-.54,1.85-1.22,2.66-2.01l-.58,3.32h11.36l5.98-33.9h-11.86l-.53,3.01ZM505.96,52.21c-1.17.62-2.42.94-3.75.94s-2.47-.31-3.43-.94c-.95-.62-1.64-1.55-2.07-2.78-.43-1.23-.5-2.67-.2-4.34.32-1.79.9-3.27,1.75-4.43.85-1.16,1.86-2.06,3.03-2.68,1.17-.62,2.42-.94,3.76-.94s2.47.31,3.42.94c.95.62,1.65,1.52,2.09,2.68.44,1.17.5,2.64.19,4.43-.29,1.67-.87,3.11-1.73,4.34-.86,1.23-1.88,2.15-3.05,2.78Z"/>
        <polygon class="cls-1" points="527.05 62.01 538.92 62.01 547.09 15.68 535.22 15.68 527.05 62.01"/>
        <path class="cls-1" d="M570.51,20.55h-11.86l-1.56,8.87h-4.93l-1.56,8.87h4.93l-2,11.36c-.76,4.33-.13,7.56,1.91,9.71,2.04,2.14,5.22,3.22,9.55,3.22,1.58,0,3.12-.16,4.61-.47,1.49-.31,2.84-.82,4.05-1.53l-1.54-8.24c-1.17.71-2.43,1.06-3.81,1.06-1.08,0-1.89-.33-2.42-1-.53-.67-.68-1.64-.45-2.93l1.97-11.18h7.74l1.56-8.87h-7.74l1.56-8.87Z"/>
        <path class="cls-1" d="M616.98,34.1c-.84-2.21-2.23-3.85-4.16-4.93-1.93-1.08-4.21-1.62-6.83-1.62-2.83,0-5.48.63-7.95,1.9-1.03.53-1.99,1.17-2.89,1.9l2.76-15.66h-11.86l-8.17,46.33h11.86l2.87-16.3c.34-1.91.9-3.45,1.69-4.62.79-1.17,1.75-2.03,2.89-2.59,1.14-.56,2.36-.84,3.65-.84,1.66,0,2.89.55,3.67,1.65.78,1.1.96,2.86.54,5.28l-3.07,17.42h11.92l3.41-19.36c.62-3.5.5-6.35-.33-8.55Z"/>
        <polygon class="cls-1" points="384.88 28.11 372.66 47.94 368.2 28.11 356.03 28.11 364.26 61.58 356.84 73.63 369.22 73.63 375.88 62.36 375.95 62.36 396.11 28.11 384.88 28.11"/>
        <path class="cls-1" d="M112.41,6.96l-3.85,21.81c-.46,2.59-2.7,4.47-5.33,4.47h-20.13c-3.57,0-6.62,2.56-7.24,6.07l-2.01,11.41c-.36,2.02-2.12,3.5-4.17,3.5h-33.61c-8.8,0-14.69-7.16-13.14-15.95,1.55-8.8,9.97-15.95,18.77-15.95h30.48c4.09,0,7.58-2.93,8.29-6.96l2.71-15.37h-37.55C24.52,0,4.32,17.17.59,38.28s10.42,38.28,31.53,38.28h29.72c4.53,0,8.4-3.25,9.18-7.71l1.84-10.52c.35-2.03,2.11-3.51,4.17-3.51h20.46c3.36,0,5.91,3.03,5.33,6.35l-2.69,15.39h13.46c5.13,0,9.52-3.68,10.41-8.74L135.97,0h-15.26c-4.09,0-7.59,2.94-8.3,6.96Z"/>
      </g>
    </g>
  </g>
</svg>