<svg width="600" height="120" viewBox="0 0 600 120" fill="none" xmlns="http://www.w3.org/2000/svg">
  <!-- CH Logo Mark -->
  <path d="M20 90 Q20 110 40 110 L60 110 Q80 110 80 90 L80 70 Q80 50 60 50 L40 50 Q20 50 20 70 Z" fill="#0000CC"/>
  <path d="M65 60 L65 100 Q65 105 70 105 L90 105 Q95 105 95 100 L95 60 Q95 55 90 55 L70 55 Q65 55 65 60 Z" fill="#0000CC"/>

  <path d="M30 70 Q30 60 40 60 L55 60 Q60 60 60 65 L60 95 Q60 100 55 100 L40 100 Q30 100 30 90 Z" fill="white"/>
  <path d="M75 65 Q75 60 80 60 L85 60 Q90 60 90 65 L90 95 Q90 100 85 100 L80 100 Q75 100 75 95 Z" fill="white"/>

  <!-- ComplyHealth Text -->
  <text x="130" y="85" font-family="Arial, sans-serif" font-size="52" font-weight="bold" fill="#0000CC">ComplyHealth</text>
</svg>
